<svg xmlns="http://www.w3.org/2000/svg" viewBox="0 0 1108.67 289.28"><defs><style>.cls-1,.cls-4{fill:#002d2d;}.cls-1,.cls-2{fill-rule:evenodd;}.cls-2,.cls-3{fill:#954a04;}.cls-5{font-size:103.45px;fill:#999;font-family:Sansation-Regular, Sansation;}.cls-6{letter-spacing:-0.02em;}</style></defs><g id="Layer_1" data-name="Layer 1"><path class="cls-1" d="M158.79,60.79c-1.45,75.06-13.71,151.88-106,210.81,0,0,53.05-139.16-40.52-193.7,26.59,6.47,65.49,13.53,95.33,59.45a3.25,3.25,0,0,0-1.67,2.91c-3.24,1.6-19.21-11-20.48-7.32s-.58,13.7-.58,13.7c-.11-.16-2.43,10,1,11.14s21.06-8,21.06-8a3.57,3.57,0,0,0,2.5,2.54h.05a3.55,3.55,0,0,0,2.49-2.54s16.32,8.76,19.79,7.65,1.16-11.31,1-11.15c0,0,.7-10-.58-13.7s-16,9.24-19.2,7.64a3.3,3.3,0,0,0-2.39-3.23c11.77-8.95,38.53-39.9,48.1-76.24ZM106.9,64.15a21.23,21.23,0,1,0,21.23,21.23A21.23,21.23,0,0,0,106.9,64.15Z"/><path class="cls-2" d="M156.64,28.6c-25,2-30.86,23.46-31.66,27.05h62.6v1H123c-2,1.2-2.65,4.15-2.65,4.15h80.89s-1-4.66-4.52-4.66c0,0-4.58-26.09-32.88-27.62a3.61,3.61,0,0,0-7.21.07Z"/><polygon class="cls-2" points="144.16 32.05 60.2 36.95 135.84 40 144.16 32.05"/><polygon class="cls-2" points="133.63 42.45 83.7 46.73 127.27 48.87 133.63 42.45"/><path class="cls-2" d="M940.26,129.91h14.57v11.21H942.19v34.26c0,4.48,1.48,7.46,6.3,7.46h6.34v11.21h-9.17c-11.54,0-16.7-6.66-16.7-17.84V119.92h8.93Z"/><path class="cls-2" d="M867.76,190.81v-12l1.58.55a64.09,64.09,0,0,0,21,3.46c3.86,0,10.45-.42,12.71-4.19a6.62,6.62,0,0,0,.85-3.43c0-5.43-3.49-7.05-8.5-7.05h-10c-13,0-20.59-6.06-20.59-19.43,0-15.46,13.94-18.83,26.87-18.83a78.23,78.23,0,0,1,21.67,3l.87.24v12l-1.58-.55a64.12,64.12,0,0,0-21-3.46c-4,0-11.14.41-13.42,4.39a6.38,6.38,0,0,0-.78,3.23c0,5.21,3,7.06,7.92,7.06h10c13.14,0,21.75,5.55,21.75,19.42,0,15.44-13.87,18.83-26.81,18.83a78.14,78.14,0,0,1-21.71-3Z"/><path class="cls-2" d="M839.78,154.41V150a7.72,7.72,0,0,0-1-4c-2.61-4.31-10-4.82-14.43-4.82A68.62,68.62,0,0,0,805.14,144l-1.52.44V133.16l.85-.25a70,70,0,0,1,19.86-3c14.43,0,28.7,4.09,28.7,21v43.19h-7.22L841.75,190A41.12,41.12,0,0,1,823,194.05c-13.95,0-24.41-5.23-24.41-20.43,0-15.78,12.36-20.17,26.23-20.17a100.82,100.82,0,0,1,14.93,1Zm0,24.19V165.65a93.42,93.42,0,0,0-14.93-1c-6.21,0-13,1.33-13,8.81,0,7.14,4.54,9.38,11.15,9.38C828.78,182.84,834.92,181.89,839.78,178.6Z"/><path class="cls-2" d="M773,129.91h18.52V141.1H773V194l-13.23.3V128.09c0-15.9,8.52-23.58,24.22-23.58a39.74,39.74,0,0,1,14.17,2.42l.77.3v11.42l-1.64-.68a35.52,35.52,0,0,0-13.36-2.27c-6.33,0-10.93,2.06-10.93,9Z"/><path class="cls-2" d="M671.53,154.41V150a7.71,7.71,0,0,0-1-4c-2.61-4.31-10-4.82-14.43-4.82A68.56,68.56,0,0,0,636.9,144l-1.52.44V133.16l.85-.25a70,70,0,0,1,19.86-3c14.42,0,28.7,4.09,28.7,21v43.19h-7.22L673.5,190a41.09,41.09,0,0,1-18.72,4.08c-13.95,0-24.4-5.23-24.4-20.43,0-15.78,12.36-20.17,26.23-20.17a100.69,100.69,0,0,1,14.92,1Zm0,24.19V165.65a93.22,93.22,0,0,0-14.92-1c-6.21,0-13,1.33-13,8.81,0,7.14,4.54,9.38,11.15,9.38C660.54,182.84,666.68,181.89,671.53,178.6Z"/><path class="cls-2" d="M577.65,166.28c.57,13,10.55,16.56,22.64,16.56a75.75,75.75,0,0,0,16.1-1.74l1.44-.31v11.26l-.93.21a96.26,96.26,0,0,1-20.12,1.79c-21.64,0-32.41-11.24-32.41-32.77,0-20.49,10.09-31.37,30.76-31.37,6.68,0,13.68,1.38,18.58,6.25,7.37,7.33,7,19.64,5.45,29.12l-.16,1Zm.08-11.41H606.9c.06-3.72-.6-7.79-3.29-10.5S597,141,593.37,141C583.67,141,578.71,145.7,577.73,154.87Z"/><path class="cls-2" d="M539.29,136.76a28.14,28.14,0,0,1,18.85-6.85h1.19v11.43h-1.19c-6.65,0-12.29,2.2-16.75,7.09v45.62H528.16V129.91h9.46Z"/><polygon class="cls-2" points="724.95 162.77 756.03 194.05 738.52 194.05 711.2 166.46 711.2 159.66 733.89 134.37 750.84 134.37 724.95 162.77"/><rect class="cls-3" x="695.2" y="107.4" width="13.21" height="86.65"/><path class="cls-2" d="M504.57,152a20.44,20.44,0,0,1,11.85,19.15,22.69,22.69,0,0,1-4.5,14c-4.89,6.34-12.64,8.82-20.41,8.82H457V112.21H489.1c7.92,0,15.88,2.56,20.75,9.14A22.17,22.17,0,0,1,514,134.71,19.6,19.6,0,0,1,504.57,152Zm-33.9,6.74v23.14h20.84c7,0,11-4.94,11-11.69s-4-11.45-11-11.45Zm0-34.32v22.19H489.1c6.69,0,11-4.29,11-11s-4.19-11.22-11-11.22Z"/><path class="cls-1" d="M416.41,175.86l17.22-46h14.1l-26.28,65.16c-7.13,17.67-14.75,21.83-30.95,22.13l-3.93-10.12c11.27,0,17.09-1.82,22.89-14l-24.07-63.2h14.38Z"/><rect class="cls-4" x="365.3" y="107.64" width="13.23" height="86.41"/><rect class="cls-4" x="337.32" y="129.95" width="13.23" height="64.1"/><rect class="cls-4" x="337.32" y="107.64" width="13.23" height="11.19"/><path class="cls-1" d="M309.33,154.41V150a7.72,7.72,0,0,0-1-4c-2.6-4.31-10-4.82-14.43-4.82A68.62,68.62,0,0,0,274.69,144l-1.52.44V133.16l.85-.25a70,70,0,0,1,19.86-3c14.43,0,28.7,4.09,28.7,21v43.19h-7.22L311.3,190a41.09,41.09,0,0,1-18.72,4.08c-13.95,0-24.4-5.23-24.4-20.43,0-15.78,12.36-20.17,26.23-20.17a100.77,100.77,0,0,1,14.92,1Zm0,24.19V165.65a93.29,93.29,0,0,0-14.92-1c-6.22,0-13,1.33-13,8.81,0,7.14,4.54,9.38,11.15,9.38C298.34,182.84,304.47,181.89,309.33,178.6Z"/><path class="cls-1" d="M183.47,194.05V107.64h35.27c27.08,0,40.58,13.94,40.58,40.92,0,27.6-11.45,45.49-40.58,45.49Zm13.23-75.24v64h19.7c21.94,0,29.67-13.78,29.67-34.3,0-19.92-9.74-29.73-29.67-29.73Z"/><text class="cls-5" transform="translate(961.36 193.4)"><tspan class="cls-6">.d</tspan><tspan x="74.43" y="0">e</tspan></text></g></svg>