<?xml version="1.0" encoding="UTF-8" standalone="no"?><!DOCTYPE svg PUBLIC "-//W3C//DTD SVG 1.1//EN" "http://www.w3.org/Graphics/SVG/1.1/DTD/svg11.dtd"><svg width="100%" height="100%" viewBox="0 0 5000 3334" version="1.1" xmlns="http://www.w3.org/2000/svg" xmlns:xlink="http://www.w3.org/1999/xlink" xml:space="preserve" xmlns:serif="http://www.serif.com/" style="fill-rule:evenodd;clip-rule:evenodd;stroke-linejoin:round;stroke-miterlimit:2;"><g><path d="M3582.34,1685.19c0.093,-75.256 -6.27,-150.381 -19.02,-224.549l-1041.45,-0l-0,425.323l596.496,0c-24.654,137.21 -104.391,258.534 -220.561,335.597l-0,276.084l355.996,0c208.444,-192.185 328.541,-476.399 328.541,-812.455Z" style="fill:#4285f4;fill-rule:nonzero;"/><path d="M2521.86,2764.38c298.018,0 548.948,-97.857 731.931,-266.575l-355.996,-276.085c-99.084,67.181 -226.696,105.526 -375.935,105.526c-288.049,-0 -532.537,-194.18 -619.964,-455.847l-366.732,0l-0,284.521c187.164,372.437 569.875,608.441 986.696,608.46Z" style="fill:#34a853;fill-rule:nonzero;"/><path d="M1901.9,1871.39c-46.211,-137.09 -46.211,-285.625 0,-422.716l0,-284.521l-366.732,0c-156.67,311.756 -156.67,680.002 -0,991.758l366.732,-284.521Z" style="fill:#fbbc04;fill-rule:nonzero;"/><path d="M2521.86,992.831c157.43,-2.572 309.707,56.972 423.636,165.651l315.197,-315.196c-199.798,-187.661 -464.743,-290.79 -738.833,-287.589c-416.821,0.019 -799.532,236.024 -986.696,608.46l366.732,284.521c87.427,-261.667 331.915,-455.847 619.964,-455.847Z" style="fill:#ea4335;fill-rule:nonzero;"/></g></svg>